<svg width="24" height="24" viewBox="0 0 24 24" fill="none" xmlns="http://www.w3.org/2000/svg">
<path d="M5.13 5.295C5 5.477 5 5.735 5 6.25C5 6.765 5 7.023 5.13 7.205C5.17529 7.2692 5.23107 7.32532 5.295 7.371C5.477 7.5 5.735 7.5 6.25 7.5C6.765 7.5 7.023 7.5 7.205 7.37C7.2692 7.32471 7.32532 7.26893 7.371 7.205C7.5 7.023 7.5 6.765 7.5 6.25C7.5 5.735 7.5 5.477 7.37 5.295C7.32471 5.2308 7.26893 5.17468 7.205 5.129C7.023 5 6.765 5 6.25 5C5.735 5 5.477 5 5.295 5.13C5.2308 5.17529 5.17568 5.23107 5.13 5.295Z" fill="black"/>
<path fill-rule="evenodd" clip-rule="evenodd" d="M8.704 1.29C9.147 1.332 9.559 1.424 9.937 1.655C10.307 1.882 10.618 2.193 10.845 2.563C11.076 2.941 11.168 3.353 11.21 3.796C11.25 4.219 11.25 4.74 11.25 5.364V6.552C11.25 7.45 11.25 8.2 11.17 8.794C11.086 9.422 10.9 9.989 10.444 10.444C9.989 10.9 9.422 11.086 8.794 11.17C8.2 11.25 7.45 11.25 6.552 11.25H5.364C4.74 11.25 4.219 11.25 3.796 11.21C3.353 11.168 2.941 11.076 2.563 10.845C2.19292 10.6182 1.88177 10.3071 1.655 9.937C1.424 9.559 1.332 9.147 1.29 8.704C1.25 8.281 1.25 7.76 1.25 7.136V7.062C1.25 6.112 1.25 5.346 1.309 4.729C1.369 4.093 1.497 3.539 1.803 3.041C2.11192 2.53655 2.5358 2.11233 3.04 1.803C3.538 1.497 4.092 1.369 4.728 1.309C5.345 1.25 6.111 1.25 7.061 1.25H7.135C7.759 1.25 8.28 1.25 8.703 1.29M8.561 2.783C8.218 2.751 7.77 2.75 7.1 2.75C6.103 2.75 5.409 2.75 4.871 2.802C4.345 2.852 4.047 2.945 3.824 3.082C3.52164 3.2674 3.2674 3.52164 3.082 3.824C2.945 4.047 2.852 4.345 2.802 4.871C2.75 5.41 2.75 6.103 2.75 7.1C2.75 7.77 2.75 8.218 2.783 8.562C2.815 8.895 2.871 9.05 2.934 9.153C3.037 9.321 3.179 9.463 3.347 9.566C3.45 9.629 3.605 9.685 3.937 9.716C4.282 9.749 4.731 9.75 5.4 9.75H6.5C7.464 9.75 8.112 9.748 8.595 9.683C9.056 9.621 9.254 9.514 9.384 9.383C9.514 9.252 9.621 9.056 9.684 8.595C9.748 8.112 9.75 7.464 9.75 6.5V5.4C9.75 4.73 9.75 4.282 9.717 3.938C9.685 3.605 9.629 3.45 9.566 3.347C9.46288 3.17865 9.32135 3.03712 9.153 2.934C9.05 2.871 8.895 2.815 8.563 2.784" fill="black"/>
<path d="M16.63 5.295C16.5 5.477 16.5 5.735 16.5 6.25C16.5 6.765 16.5 7.023 16.63 7.205C16.6753 7.2692 16.7311 7.32532 16.795 7.371C16.977 7.5 17.235 7.5 17.75 7.5C18.265 7.5 18.523 7.5 18.705 7.37C18.7692 7.32471 18.8253 7.26893 18.871 7.205C19 7.023 19 6.765 19 6.25C19 5.735 19 5.477 18.87 5.295C18.8247 5.2308 18.7689 5.17468 18.705 5.129C18.523 5 18.265 5 17.75 5C17.235 5 16.977 5 16.795 5.13C16.7308 5.17529 16.6757 5.23107 16.63 5.295Z" fill="black"/>
<path fill-rule="evenodd" clip-rule="evenodd" d="M16.864 1.25H16.938C17.888 1.25 18.654 1.25 19.271 1.309C19.907 1.369 20.461 1.497 20.959 1.803C21.464 2.112 21.889 2.536 22.197 3.041C22.503 3.539 22.631 4.093 22.691 4.729C22.75 5.346 22.75 6.112 22.75 7.062V7.136C22.75 7.76 22.75 8.281 22.71 8.704C22.668 9.147 22.576 9.559 22.345 9.937C22.118 10.307 21.807 10.618 21.437 10.845C21.059 11.076 20.647 11.168 20.204 11.21C19.781 11.25 19.26 11.25 18.636 11.25H17.448C16.549 11.25 15.8 11.25 15.206 11.17C14.578 11.086 14.011 10.9 13.556 10.444C13.1 9.989 12.914 9.422 12.83 8.794C12.75 8.2 12.75 7.45 12.75 6.552V5.364C12.75 4.74 12.75 4.219 12.79 3.796C12.832 3.353 12.924 2.941 13.155 2.563C13.3818 2.19292 13.6929 1.88177 14.063 1.655C14.441 1.424 14.853 1.332 15.296 1.29C15.719 1.25 16.24 1.25 16.864 1.25ZM15.438 2.783C15.105 2.815 14.95 2.871 14.847 2.934C14.6787 3.03712 14.5371 3.17865 14.434 3.347C14.371 3.45 14.315 3.605 14.284 3.937C14.251 4.282 14.25 4.731 14.25 5.4V6.5C14.25 7.464 14.252 8.112 14.316 8.595C14.379 9.056 14.486 9.254 14.616 9.384C14.746 9.514 14.944 9.621 15.406 9.684C15.888 9.748 16.536 9.75 17.5 9.75H18.6C19.27 9.75 19.718 9.75 20.062 9.717C20.395 9.685 20.55 9.629 20.653 9.566C20.8213 9.46288 20.9629 9.32135 21.066 9.153C21.129 9.05 21.185 8.895 21.216 8.563C21.249 8.218 21.25 7.769 21.25 7.1C21.25 6.103 21.25 5.409 21.198 4.871C21.148 4.345 21.055 4.047 20.918 3.824C20.7326 3.52164 20.4784 3.2674 20.176 3.082C19.953 2.945 19.655 2.852 19.129 2.802C18.591 2.751 17.897 2.75 16.9 2.75C16.23 2.75 15.782 2.75 15.438 2.783Z" fill="black"/>
<path d="M5 17.75C5 17.235 5 16.977 5.13 16.795C5.17529 16.7308 5.23107 16.6747 5.295 16.629C5.477 16.5 5.735 16.5 6.25 16.5C6.765 16.5 7.023 16.5 7.205 16.63C7.2692 16.6753 7.32532 16.7311 7.371 16.795C7.5 16.977 7.5 17.235 7.5 17.75C7.5 18.265 7.5 18.523 7.37 18.705C7.32471 18.7692 7.26893 18.8253 7.205 18.871C7.023 19 6.765 19 6.25 19C5.735 19 5.477 19 5.295 18.87C5.2308 18.8247 5.17468 18.7689 5.129 18.705C5 18.523 5 18.265 5 17.75Z" fill="black"/>
<path fill-rule="evenodd" clip-rule="evenodd" d="M8.794 12.83C9.422 12.914 9.989 13.1 10.444 13.556C10.9 14.011 11.086 14.578 11.17 15.206C11.25 15.8 11.25 16.549 11.25 17.448V18.636C11.25 19.26 11.25 19.781 11.21 20.204C11.168 20.646 11.076 21.059 10.845 21.437C10.618 21.807 10.307 22.118 9.937 22.345C9.559 22.577 9.147 22.668 8.704 22.71C8.281 22.75 7.76 22.75 7.136 22.75H7.062C6.112 22.75 5.346 22.75 4.729 22.691C4.093 22.631 3.539 22.503 3.041 22.197C2.53643 21.8878 2.1122 21.4636 1.803 20.959C1.497 20.461 1.369 19.907 1.309 19.271C1.25 18.654 1.25 17.888 1.25 16.938V16.864C1.25 16.24 1.25 15.719 1.29 15.296C1.332 14.854 1.424 14.441 1.655 14.063C1.88177 13.6929 2.19292 13.3818 2.563 13.155C2.941 12.924 3.353 12.832 3.796 12.79C4.219 12.75 4.74 12.75 5.364 12.75H6.552C7.45 12.75 8.2 12.75 8.794 12.83ZM8.594 14.316C8.112 14.252 7.464 14.25 6.5 14.25H5.4C4.73 14.25 4.282 14.25 3.938 14.284C3.605 14.315 3.45 14.371 3.347 14.434C3.17865 14.5371 3.03712 14.6787 2.934 14.847C2.871 14.95 2.815 15.105 2.784 15.437C2.751 15.782 2.75 16.231 2.75 16.9C2.75 17.897 2.75 18.591 2.802 19.129C2.852 19.655 2.945 19.953 3.082 20.176C3.267 20.478 3.522 20.733 3.824 20.918C4.047 21.055 4.345 21.148 4.871 21.198C5.409 21.249 6.103 21.25 7.1 21.25C7.77 21.25 8.218 21.25 8.562 21.216C8.895 21.185 9.05 21.129 9.153 21.066C9.32135 20.9629 9.46288 20.8213 9.566 20.653C9.629 20.55 9.685 20.395 9.716 20.063C9.749 19.718 9.75 19.269 9.75 18.6V17.5C9.75 16.536 9.748 15.888 9.683 15.405C9.621 14.944 9.514 14.746 9.383 14.616C9.252 14.486 9.056 14.379 8.595 14.316" fill="black"/>
<path d="M16.962 12.75H19V14.25H17C16.282 14.25 15.8 14.25 15.433 14.288C15.078 14.324 14.914 14.388 14.806 14.461C14.6703 14.5532 14.5532 14.6703 14.461 14.806C14.388 14.914 14.324 15.078 14.288 15.433C14.251 15.8 14.25 16.283 14.25 17H12.75V16.962C12.75 16.292 12.75 15.733 12.796 15.281C12.844 14.807 12.949 14.368 13.214 13.972C13.414 13.672 13.672 13.414 13.972 13.214C14.368 12.949 14.807 12.844 15.281 12.796C15.733 12.75 16.293 12.75 16.962 12.75ZM12.75 22V19H14.25V22C14.25 22.1989 14.171 22.3897 14.0303 22.5303C13.8897 22.671 13.6989 22.75 13.5 22.75C13.3011 22.75 13.1103 22.671 12.9697 22.5303C12.829 22.3897 12.75 22.1989 12.75 22ZM22.75 13.5C22.75 13.3011 22.671 13.1103 22.5303 12.9697C22.3897 12.829 22.1989 12.75 22 12.75C21.8011 12.75 21.6103 12.829 21.4697 12.9697C21.329 13.1103 21.25 13.3011 21.25 13.5V17H22.75V13.5ZM21.25 19C21.25 19.476 21.25 19.796 21.233 20.043C21.216 20.284 21.187 20.401 21.155 20.478C21.0922 20.6298 21.0001 20.7677 20.8839 20.8839C20.7677 21.0001 20.6298 21.0922 20.478 21.155C20.401 21.187 20.284 21.216 20.043 21.233C19.796 21.25 19.476 21.25 19 21.25H17V22.75H19.025C19.47 22.75 19.841 22.75 20.145 22.73C20.462 22.708 20.762 22.661 21.052 22.54C21.3857 22.4019 21.689 22.1994 21.9445 21.9441C22.2 21.6888 22.4027 21.3857 22.541 21.052C22.661 20.762 22.708 20.462 22.729 20.145C22.75 19.841 22.75 19.47 22.75 19.025V19H21.25ZM16.169 16.444C16 16.697 16 17.048 16 17.75C16 18.452 16 18.803 16.169 19.056C16.2418 19.1648 16.3352 19.2582 16.444 19.331C16.697 19.5 17.048 19.5 17.75 19.5C18.452 19.5 18.803 19.5 19.056 19.331C19.1648 19.2582 19.2582 19.1648 19.331 19.056C19.5 18.803 19.5 18.452 19.5 17.75C19.5 17.048 19.5 16.697 19.331 16.444C19.2582 16.3352 19.1648 16.2418 19.056 16.169C18.803 16 18.452 16 17.75 16C17.048 16 16.697 16 16.444 16.169C16.3352 16.2418 16.2418 16.3352 16.169 16.444Z" fill="black"/>
</svg>
