<svg width="34" height="34" viewBox="0 0 34 34" fill="none" xmlns="http://www.w3.org/2000/svg">
<path d="M16.6667 25C17.1389 25 17.5347 24.8403 17.8542 24.5208C18.1736 24.2014 18.3333 23.8056 18.3333 23.3333C18.3333 22.8611 18.1736 22.4653 17.8542 22.1458C17.5347 21.8264 17.1389 21.6667 16.6667 21.6667C16.1944 21.6667 15.7986 21.8264 15.4792 22.1458C15.1597 22.4653 15 22.8611 15 23.3333C15 23.8056 15.1597 24.2014 15.4792 24.5208C15.7986 24.8403 16.1944 25 16.6667 25ZM15 18.3333H18.3333V8.33333H15V18.3333ZM16.6667 33.3333C14.3611 33.3333 12.1944 32.8958 10.1667 32.0208C8.13889 31.1458 6.375 29.9583 4.875 28.4583C3.375 26.9583 2.1875 25.1944 1.3125 23.1667C0.4375 21.1389 0 18.9722 0 16.6667C0 14.3611 0.4375 12.1944 1.3125 10.1667C2.1875 8.13889 3.375 6.375 4.875 4.875C6.375 3.375 8.13889 2.1875 10.1667 1.3125C12.1944 0.4375 14.3611 0 16.6667 0C18.9722 0 21.1389 0.4375 23.1667 1.3125C25.1944 2.1875 26.9583 3.375 28.4583 4.875C29.9583 6.375 31.1458 8.13889 32.0208 10.1667C32.8958 12.1944 33.3333 14.3611 33.3333 16.6667C33.3333 18.9722 32.8958 21.1389 32.0208 23.1667C31.1458 25.1944 29.9583 26.9583 28.4583 28.4583C26.9583 29.9583 25.1944 31.1458 23.1667 32.0208C21.1389 32.8958 18.9722 33.3333 16.6667 33.3333Z" fill="#BA1A1A"/>
</svg>
