<svg width="24" height="24" viewBox="0 0 24 24" fill="none" xmlns="http://www.w3.org/2000/svg">
<path opacity="0.3" d="M12.0023 4.04529L3.33042 12.7101H5.58042V20.3437H9.18745V15C9.18745 14.482 9.60698 14.0625 10.125 14.0625H13.875C14.3929 14.0625 14.8125 14.482 14.8125 15V20.3437H18.4195V12.7101H20.6718L12.5437 4.58669L12.0023 4.04529ZM22.1859 13.957C22.0453 14.0976 21.8789 14.2101 21.6984 14.2828C21.8789 14.2078 22.0453 14.0976 22.1859 13.957ZM1.39683 13.1437C1.51401 13.8539 2.13276 14.3976 2.87573 14.3976H2.89683C2.14917 14.3976 1.51636 13.8586 1.39683 13.1437ZM1.37808 12.8367C1.38042 12.764 1.38979 12.6937 1.40151 12.6234C1.38745 12.6914 1.38042 12.764 1.37808 12.8367Z" fill="black"/>
<path d="M22.2891 11.9532C22.2891 11.9508 22.2868 11.9508 22.2868 11.9485L22.2446 11.8993C22.2422 11.8969 22.2399 11.8922 22.2352 11.8899C22.2188 11.8712 22.2 11.8524 22.1836 11.8337L13.1274 2.78443L12.5204 2.1774C12.3821 2.04 12.195 1.96289 12 1.96289C11.8051 1.96289 11.618 2.04 11.4797 2.1774L1.81646 11.836C1.64188 12.0096 1.51304 12.2238 1.44146 12.4594L1.42739 12.5087L1.42036 12.5344L1.41333 12.5626C1.40864 12.579 1.4063 12.5954 1.40396 12.6118C1.40396 12.6141 1.40396 12.6188 1.40161 12.6212C1.38755 12.6915 1.38052 12.7618 1.37817 12.8344V12.9118C1.37817 12.9235 1.37817 12.9352 1.38052 12.9469C1.38052 12.9587 1.38052 12.968 1.38286 12.9797C1.38286 12.9915 1.38521 13.0032 1.38521 13.0149C1.38521 13.029 1.38755 13.043 1.38989 13.0571C1.38989 13.0641 1.39224 13.0712 1.39224 13.0782L1.39927 13.1368V13.1391C1.5188 13.854 2.15395 14.393 2.89927 14.393H3.89536V22.0313H20.1071V14.3977H21.1243C21.3258 14.3977 21.5204 14.3579 21.6985 14.2829C21.8766 14.2079 22.043 14.0977 22.186 13.9571C22.3256 13.8179 22.4363 13.6524 22.5115 13.4701C22.5867 13.2879 22.6251 13.0925 22.6243 12.8954C22.6243 12.5508 22.5071 12.2204 22.2891 11.9532ZM13.3125 20.3438H10.6875V15.5626H13.3125V20.3438ZM18.4196 12.7102V20.3438H14.8125V15.0001C14.8125 14.4821 14.393 14.0626 13.875 14.0626H10.125C9.60708 14.0626 9.18755 14.4821 9.18755 15.0001V20.3438H5.58052V12.7102H3.33052L12.0024 4.04537L12.5438 4.58678L20.6719 12.7102H18.4196Z" fill="black"/>
</svg>
