<svg width="24" height="24" viewBox="0 0 24 24" fill="none" xmlns="http://www.w3.org/2000/svg">
<path d="M8.92298 5.32997C9.22337 4.77582 9.66783 4.31308 10.2094 3.99061C10.751 3.66815 11.3697 3.49792 12 3.49792C12.6303 3.49792 13.2489 3.66815 13.7905 3.99061C14.3321 4.31308 14.7766 4.77582 15.077 5.32997C15.4444 4.93989 15.9217 4.67072 16.4457 4.55815C16.9696 4.44558 17.5153 4.49492 18.0106 4.69964C18.5058 4.90436 18.9271 5.25479 19.2186 5.70444C19.5101 6.1541 19.6581 6.68174 19.6428 7.2174C19.6276 7.75306 19.4498 8.27143 19.1332 8.70377C18.8166 9.13611 18.376 9.46199 17.87 9.6382C17.3639 9.81441 16.8162 9.83262 16.2995 9.69042C15.7829 9.54822 15.3216 9.25232 14.977 8.84197C14.6631 9.34907 14.2249 9.76756 13.7039 10.0577C13.1829 10.3479 12.5963 10.5001 12 10.5C11.4039 10.5001 10.8176 10.3479 10.2968 10.0579C9.776 9.76794 9.33787 9.34974 9.02398 8.84297C8.67927 9.25319 8.21802 9.54895 7.70138 9.69103C7.18474 9.83311 6.63712 9.81481 6.13112 9.63856C5.62512 9.4623 5.18464 9.13641 4.86808 8.70409C4.55153 8.27177 4.37385 7.75345 4.3586 7.21785C4.34336 6.68225 4.49126 6.15466 4.78271 5.70504C5.07416 5.25541 5.49539 4.90499 5.99054 4.70024C6.4857 4.49548 7.03139 4.44606 7.55528 4.55852C8.07916 4.67099 8.55549 4.94003 8.92298 5.32997ZM9.55698 6.46997C9.66014 6.86171 9.67211 7.27188 9.59198 7.66897C9.73844 8.19545 10.0533 8.65947 10.4884 8.99008C10.9236 9.32068 11.455 9.49966 12.0015 9.49966C12.548 9.49966 13.0794 9.32068 13.5145 8.99008C13.9496 8.65947 14.2645 8.19545 14.411 7.66897C14.3307 7.27161 14.3424 6.86115 14.445 6.46897C14.3238 5.9109 14.0152 5.41113 13.5706 5.05273C13.1259 4.69433 12.5721 4.49888 12.001 4.49888C11.4299 4.49888 10.876 4.69433 10.4314 5.05273C9.98678 5.41113 9.67821 5.9119 9.55698 6.46997ZM8.53098 6.54097C8.38976 6.18097 8.12609 5.88232 7.78637 5.69758C7.44665 5.51284 7.05265 5.45385 6.67371 5.53099C6.29478 5.60812 5.9552 5.81645 5.71473 6.1193C5.47427 6.42215 5.34833 6.80011 5.35909 7.18667C5.36985 7.57322 5.51661 7.9436 5.77354 8.23261C6.03048 8.52161 6.38112 8.71073 6.76375 8.76668C7.14639 8.82263 7.5365 8.74181 7.86542 8.53846C8.19435 8.33512 8.441 8.02227 8.56198 7.65497C8.49222 7.28768 8.48175 6.91158 8.53098 6.54097ZM15.44 7.65397C15.5608 8.02163 15.8076 8.33486 16.1367 8.53852C16.4658 8.74217 16.8562 8.82319 17.2391 8.76731C17.6221 8.71143 17.973 8.52224 18.2302 8.23304C18.4874 7.94384 18.6343 7.57318 18.6451 7.18631C18.6559 6.79944 18.5298 6.42118 18.2891 6.11811C18.0484 5.81504 17.7086 5.60661 17.3293 5.5295C16.95 5.45239 16.5557 5.51155 16.2158 5.69658C15.8759 5.8816 15.6121 6.18061 15.471 6.54097C15.5201 6.91125 15.5096 7.287 15.44 7.65397ZM4.95098 10.297C5.29798 10.205 5.62598 10.319 5.85198 10.483C5.94198 10.548 6.06598 10.628 6.21698 10.701C6.33258 10.7609 6.42026 10.8635 6.46137 10.987C6.50248 11.1106 6.49378 11.2453 6.43712 11.3625C6.38047 11.4797 6.28032 11.5702 6.15797 11.6148C6.03563 11.6593 5.90074 11.6543 5.78198 11.601C5.60088 11.5138 5.42787 11.4107 5.26498 11.293C5.24876 11.2814 5.2309 11.2723 5.21198 11.266L5.20498 11.265C5.07015 11.301 4.93642 11.341 4.80398 11.385L4.11798 11.609C3.86216 11.6923 3.63094 11.8376 3.44493 12.032C3.25893 12.2263 3.12393 12.4637 3.05198 12.723L2.76898 14.772C2.71298 15.175 2.92598 15.477 3.22898 15.549C3.45231 15.6036 3.72331 15.657 4.04198 15.709C4.10685 15.7195 4.16902 15.7427 4.22494 15.7772C4.28085 15.8117 4.32942 15.8569 4.36786 15.9102C4.4063 15.9635 4.43387 16.0239 4.44899 16.0878C4.46411 16.1518 4.46649 16.2181 4.45598 16.283C4.44548 16.3478 4.42229 16.41 4.38776 16.4659C4.35323 16.5218 4.30802 16.5704 4.25472 16.6088C4.20142 16.6473 4.14107 16.6749 4.07712 16.69C4.01316 16.7051 3.94685 16.7075 3.88198 16.697C3.58523 16.6497 3.29035 16.5914 2.99798 16.522C2.10298 16.309 1.66498 15.452 1.77798 14.635L2.06998 12.529L2.07598 12.502C2.18549 12.0738 2.40154 11.6803 2.70402 11.358C3.0065 11.0358 3.38558 10.7953 3.80598 10.659L4.49098 10.434C4.64432 10.384 4.79765 10.3383 4.95098 10.297ZM19.18 10.297C19.0256 10.2592 18.8647 10.2563 18.709 10.2884C18.5533 10.3206 18.4068 10.3871 18.28 10.483C18.19 10.548 18.066 10.628 17.915 10.701C17.7994 10.7609 17.7117 10.8635 17.6706 10.987C17.6295 11.1106 17.6382 11.2453 17.6948 11.3625C17.7515 11.4797 17.8516 11.5702 17.974 11.6148C18.0963 11.6593 18.2312 11.6543 18.35 11.601C18.5311 11.5138 18.7041 11.4107 18.867 11.293C18.8832 11.2814 18.9011 11.2723 18.92 11.266L18.925 11.265H18.927C19.0623 11.3003 19.196 11.3403 19.328 11.385L20.014 11.609C20.54 11.782 20.939 12.203 21.08 12.723L21.363 14.772C21.419 15.175 21.207 15.477 20.903 15.549C20.6341 15.6125 20.3629 15.6659 20.09 15.709C19.959 15.7302 19.8417 15.8026 19.7641 15.9102C19.6865 16.0179 19.6548 16.152 19.676 16.283C19.6972 16.414 19.7696 16.5312 19.8772 16.6088C19.9849 16.6865 20.119 16.7182 20.25 16.697C20.5913 16.6403 20.886 16.582 21.134 16.522C22.029 16.309 22.467 15.452 22.354 14.635L22.062 12.529L22.056 12.502C21.9465 12.0738 21.7304 11.6803 21.4279 11.358C21.1255 11.0358 20.7464 10.7953 20.326 10.659L19.641 10.434C19.4889 10.3842 19.3345 10.3385 19.18 10.297Z" fill="black"/>
<path d="M13.791 11.92C14.15 11.682 14.651 11.51 15.168 11.655C15.324 11.699 15.4797 11.7467 15.635 11.798L16.594 12.113C17.1505 12.2937 17.6522 12.6121 18.0526 13.0387C18.453 13.4653 18.739 13.9862 18.884 14.553L18.891 14.58L19.297 17.516C19.444 18.576 18.877 19.666 17.743 19.936C16.593 20.21 14.731 20.5 12 20.5C9.27004 20.5 7.40704 20.21 6.25704 19.936C5.12304 19.666 4.55604 18.576 4.70304 17.516L5.10904 14.58L5.11604 14.553C5.2611 13.9862 5.54711 13.4653 5.94748 13.0387C6.34785 12.6121 6.84959 12.2937 7.40604 12.113L8.36604 11.798C8.5207 11.7467 8.67604 11.699 8.83204 11.655C9.34904 11.509 9.85004 11.682 10.209 11.92C10.592 12.174 11.222 12.486 12 12.486C12.778 12.486 13.409 12.174 13.791 11.92ZM14.896 12.617C14.754 12.577 14.556 12.613 14.344 12.753C13.867 13.07 13.044 13.486 12 13.486C10.956 13.486 10.133 13.07 9.65604 12.753C9.44504 12.613 9.24604 12.577 9.10404 12.617C8.9607 12.657 8.8187 12.7003 8.67804 12.747L7.71804 13.063C7.3263 13.1905 6.97252 13.4137 6.68863 13.7122C6.40475 14.0108 6.19971 14.3753 6.09204 14.773L5.69304 17.653C5.60304 18.3 5.94604 18.833 6.48904 18.963C7.55604 19.218 9.34104 19.5 12 19.5C14.659 19.5 16.444 19.218 17.511 18.963C18.054 18.833 18.396 18.3 18.307 17.653L17.908 14.773C17.8004 14.3753 17.5953 14.0108 17.3114 13.7122C17.0276 13.4137 16.6738 13.1905 16.282 13.063L15.322 12.748C15.1814 12.7013 15.0394 12.658 14.896 12.618" fill="black"/>
</svg>
