<svg width="128" height="96" viewBox="0 0 128 96" fill="none" xmlns="http://www.w3.org/2000/svg">
<g opacity="0.2">
<mask id="mask0_105_6382" style="mask-type:alpha" maskUnits="userSpaceOnUse" x="0" y="0" width="128" height="96">
<path opacity="0.48" fill-rule="evenodd" clip-rule="evenodd" d="M0 53.0082C0 64.0634 3.98543 74.1375 10.5437 81.7511C18.0676 90.4883 28.9779 95.9815 41.1394 96C46.4544 96.0079 51.5365 94.9635 56.2047 93.0569C58.6184 92.0708 61.3199 92.184 63.6576 93.3523C66.3998 94.721 69.4704 95.4884 72.7129 95.4884C74.0523 95.4884 75.3639 95.3565 76.6327 95.1062C80.2544 94.3941 83.5501 92.7089 86.2566 90.3222C87.9576 88.8215 90.1361 88.0673 92.3626 88.0699H92.4004C99.7575 88.0699 106.591 85.7414 112.265 81.7511C117.337 78.1883 121.48 73.2987 124.239 67.5577C126.645 62.5549 128 56.9035 128 50.9221C128 30.4073 112.06 13.7742 92.4004 13.7742C90.3962 13.7742 88.4326 13.9509 86.517 14.2805C81.4447 5.71202 72.3614 0 61.9996 0C57.6248 0 53.4774 1.01805 49.765 2.84299C46.2344 4.57289 43.0954 7.03101 40.5276 10.0267C31.8084 10.1717 23.7461 13.144 17.1475 18.1044C6.76038 25.9081 0 38.6353 0 53.0082Z" fill="url(#paint0_linear_105_6382)"/>
</mask>
<g mask="url(#mask0_105_6382)">
<rect width="128" height="96" fill="#00A76F"/>
</g>
</g>
<path fill-rule="evenodd" clip-rule="evenodd" d="M64.4117 62.9483C66.3286 61.2089 68.1026 59.3184 69.7167 57.2949C73.1167 53.0233 75.1851 48.8116 75.3251 45.0666C75.3805 43.5446 75.1285 42.027 74.5843 40.6046C74.0401 39.1821 73.2147 37.8839 72.1576 36.7876C71.1004 35.6912 69.8331 34.8192 68.4314 34.2236C67.0297 33.628 65.5223 33.321 63.9992 33.321C62.4762 33.321 60.9688 33.628 59.5671 34.2236C58.1654 34.8192 56.8981 35.6912 55.8409 36.7876C54.7838 37.8839 53.9584 39.1821 53.4142 40.6046C52.87 42.027 52.618 43.5446 52.6734 45.0666C52.8151 48.8116 54.8851 53.0233 58.2834 57.2949C59.8975 59.3184 61.6716 61.2089 63.5884 62.9483C63.7729 63.1149 63.9101 63.236 64.0001 63.3116L64.4117 62.9483ZM62.7701 64.8899C62.7701 64.8899 50.6667 54.6966 50.6667 44.6666C50.6667 41.1304 52.0715 37.739 54.572 35.2385C57.0725 32.738 60.4639 31.3333 64.0001 31.3333C67.5363 31.3333 70.9277 32.738 73.4282 35.2385C75.9287 37.739 77.3334 41.1304 77.3334 44.6666C77.3334 54.6966 65.2301 64.8899 65.2301 64.8899C64.5567 65.5099 63.4484 65.5033 62.7701 64.8899ZM64.0001 49.3333C65.2378 49.3333 66.4247 48.8416 67.2999 47.9664C68.1751 47.0912 68.6667 45.9043 68.6667 44.6666C68.6667 43.4289 68.1751 42.2419 67.2999 41.3668C66.4247 40.4916 65.2378 39.9999 64.0001 39.9999C62.7624 39.9999 61.5754 40.4916 60.7002 41.3668C59.8251 42.2419 59.3334 43.4289 59.3334 44.6666C59.3334 45.9043 59.8251 47.0912 60.7002 47.9664C61.5754 48.8416 62.7624 49.3333 64.0001 49.3333ZM64.0001 51.3333C62.232 51.3333 60.5363 50.6309 59.286 49.3806C58.0358 48.1304 57.3334 46.4347 57.3334 44.6666C57.3334 42.8985 58.0358 41.2028 59.286 39.9525C60.5363 38.7023 62.232 37.9999 64.0001 37.9999C65.7682 37.9999 67.4639 38.7023 68.7141 39.9525C69.9644 41.2028 70.6667 42.8985 70.6667 44.6666C70.6667 46.4347 69.9644 48.1304 68.7141 49.3806C67.4639 50.6309 65.7682 51.3333 64.0001 51.3333Z" fill="black"/>
<defs>
<linearGradient id="paint0_linear_105_6382" x1="64" y1="96" x2="113.845" y2="6.72475" gradientUnits="userSpaceOnUse">
<stop/>
<stop offset="1" stop-opacity="0.01"/>
</linearGradient>
</defs>
</svg>
