<svg width="84" height="84" viewBox="0 0 84 84" fill="none" xmlns="http://www.w3.org/2000/svg">
<path opacity="0.6" d="M31.5 7H35C44.898 7 49.8505 7 52.9235 10.0765C56 13.1495 56 18.102 56 28V56C56 65.898 56 70.8505 52.9235 73.9235C49.8505 77 44.898 77 35 77H31.5C21.602 77 16.6495 77 13.5765 73.9235C10.5 70.8505 10.5 65.898 10.5 56V28C10.5 18.102 10.5 13.1495 13.5765 10.0765C16.6495 7 21.602 7 31.5 7Z" fill="#637381"/>
<path opacity="0.4" d="M56 28C56 22.617 56 18.7005 55.5065 15.75H56C64.2495 15.75 68.376 15.75 70.938 18.312C73.5 20.874 73.5 25.0005 73.5 33.25V50.75C73.5 58.9995 73.5 63.1225 70.938 65.688C68.376 68.2535 64.2495 68.25 56 68.25H55.5065C56 65.2995 56 61.383 56 56V28Z" fill="#637381"/>
<path fill-rule="evenodd" clip-rule="evenodd" d="M68.355 40.1451C68.8466 40.6372 69.1227 41.3044 69.1227 42.0001C69.1227 42.6957 68.8466 43.3629 68.355 43.8551L61.355 50.855C60.8574 51.3187 60.1992 51.5712 59.5192 51.5592C58.8391 51.5472 58.1903 51.2717 57.7093 50.7907C57.2284 50.3098 56.9529 49.6609 56.9409 48.9809C56.9289 48.3008 57.1813 47.6427 57.645 47.1451L60.165 44.6251H35C34.3038 44.6251 33.6361 44.3485 33.1438 43.8562C32.6516 43.3639 32.375 42.6962 32.375 42.0001C32.375 41.3039 32.6516 40.6362 33.1438 40.1439C33.6361 39.6516 34.3038 39.3751 35 39.3751H60.165L57.645 36.855C57.3871 36.6147 57.1802 36.3249 57.0368 36.0029C56.8933 35.6809 56.8161 35.3333 56.8099 34.9809C56.8037 34.6284 56.8685 34.2783 57.0006 33.9515C57.1326 33.6246 57.3291 33.3277 57.5784 33.0784C57.8276 32.8292 58.1245 32.6326 58.4514 32.5006C58.7783 32.3686 59.1284 32.3038 59.4808 32.31C59.8333 32.3162 60.1809 32.3933 60.5029 32.5368C60.8249 32.6803 61.1147 32.8871 61.355 33.1451L68.355 40.1451Z" fill="#637381"/>
</svg>
