<svg width="24" height="24" viewBox="0 0 24 24" fill="none" xmlns="http://www.w3.org/2000/svg">
<path d="M22.35 5.50001L18 9.80001C18 9.80001 16.7 9.80001 15.4 8.50001C14.1 7.20001 14.1 5.90001 14.1 5.90001L18.45 1.55001C16 0.950013 13.05 1.75001 11.25 3.55001C8.54998 6.25001 10.95 9.70001 10.25 10.4C6.44998 14.35 2.54999 17.35 2.44999 17.5C1.29999 18.65 1.24999 20.5 2.34999 21.6C3.44999 22.7 5.29998 22.65 6.44999 21.5C6.59999 21.35 9.79998 17.3 13.55 13.55C14.25 12.85 17.55 15.4 20.35 12.65C22.1 10.85 22.95 7.95001 22.35 5.50001ZM4.69999 20.55C3.99998 20.55 3.44999 20 3.44999 19.3C3.44999 18.55 3.99998 18 4.69999 18C5.39999 18 5.94999 18.55 5.94999 19.25C5.94999 19.95 5.39999 20.55 4.69999 20.55Z" fill="black"/>
</svg>
